<svg id="visual" viewBox="0 0 900 600" width="900" height="600" xmlns="http://www.w3.org/2000/svg" xmlns:xlink="http://www.w3.org/1999/xlink" version="1.1"><rect x="0" y="0" width="900" height="600" fill="#002233"></rect><path d="M0 274L12.5 269.2C25 264.3 50 254.7 75 258C100 261.3 125 277.7 150 285.3C175 293 200 292 225 280.2C250 268.3 275 245.7 300 262.5C325 279.3 350 335.7 375 347.5C400 359.3 425 326.7 450 316.7C475 306.7 500 319.3 525 319.7C550 320 575 308 600 302C625 296 650 296 675 280C700 264 725 232 750 247C775 262 800 324 825 331C850 338 875 290 887.5 266L900 242L900 601L887.5 601C875 601 850 601 825 601C800 601 775 601 750 601C725 601 700 601 675 601C650 601 625 601 600 601C575 601 550 601 525 601C500 601 475 601 450 601C425 601 400 601 375 601C350 601 325 601 300 601C275 601 250 601 225 601C200 601 175 601 150 601C125 601 100 601 75 601C50 601 25 601 12.5 601L0 601Z" fill="#0066FF" stroke-linecap="round" stroke-linejoin="miter"></path></svg>