<svg id="visual" viewBox="0 0 900 600" width="900" height="600" xmlns="http://www.w3.org/2000/svg" xmlns:xlink="http://www.w3.org/1999/xlink" version="1.1"><rect x="0" y="0" width="900" height="600" fill="#2d2929"></rect><path d="M0 355L129 336L257 299L386 291L514 347L643 365L771 322L900 357L900 601L771 601L643 601L514 601L386 601L257 601L129 601L0 601Z" fill="#f5730a"></path><path d="M0 343L129 357L257 420L386 361L514 392L643 385L771 416L900 387L900 601L771 601L643 601L514 601L386 601L257 601L129 601L0 601Z" fill="#da5b09"></path><path d="M0 440L129 381L257 438L386 412L514 456L643 393L771 417L900 402L900 601L771 601L643 601L514 601L386 601L257 601L129 601L0 601Z" fill="#be4407"></path><path d="M0 517L129 456L257 473L386 509L514 500L643 516L771 491L900 442L900 601L771 601L643 601L514 601L386 601L257 601L129 601L0 601Z" fill="#a32d04"></path><path d="M0 512L129 555L257 519L386 550L514 562L643 554L771 502L900 522L900 601L771 601L643 601L514 601L386 601L257 601L129 601L0 601Z" fill="#871400"></path></svg>