<svg id="visual" viewBox="0 0 900 600" width="900" height="600" xmlns="http://www.w3.org/2000/svg" xmlns:xlink="http://www.w3.org/1999/xlink" version="1.1"><rect x="0" y="0" width="900" height="600" fill="#001220"></rect><path d="M0 370L21.5 367.5C43 365 86 360 128.8 362.2C171.7 364.3 214.3 373.7 257.2 382.2C300 390.7 343 398.3 385.8 395.3C428.7 392.3 471.3 378.7 514.2 364.8C557 351 600 337 642.8 332.7C685.7 328.3 728.3 333.7 771.2 329.7C814 325.7 857 312.3 878.5 305.7L900 299L900 601L878.5 601C857 601 814 601 771.2 601C728.3 601 685.7 601 642.8 601C600 601 557 601 514.2 601C471.3 601 428.7 601 385.8 601C343 601 300 601 257.2 601C214.3 601 171.7 601 128.8 601C86 601 43 601 21.5 601L0 601Z" fill="#289ebc"></path><path d="M0 381L21.5 382.2C43 383.3 86 385.7 128.8 382.7C171.7 379.7 214.3 371.3 257.2 374.5C300 377.7 343 392.3 385.8 394.7C428.7 397 471.3 387 514.2 388.5C557 390 600 403 642.8 409.8C685.7 416.7 728.3 417.3 771.2 422.2C814 427 857 436 878.5 440.5L900 445L900 601L878.5 601C857 601 814 601 771.2 601C728.3 601 685.7 601 642.8 601C600 601 557 601 514.2 601C471.3 601 428.7 601 385.8 601C343 601 300 601 257.2 601C214.3 601 171.7 601 128.8 601C86 601 43 601 21.5 601L0 601Z" fill="#28a6c8"></path><path d="M0 443L21.5 446.5C43 450 86 457 128.8 453C171.7 449 214.3 434 257.2 437.8C300 441.7 343 464.3 385.8 466.8C428.7 469.3 471.3 451.7 514.2 451.8C557 452 600 470 642.8 468.8C685.7 467.7 728.3 447.3 771.2 443.3C814 439.3 857 451.7 878.5 457.8L900 464L900 601L878.5 601C857 601 814 601 771.2 601C728.3 601 685.7 601 642.8 601C600 601 557 601 514.2 601C471.3 601 428.7 601 385.8 601C343 601 300 601 257.2 601C214.3 601 171.7 601 128.8 601C86 601 43 601 21.5 601L0 601Z" fill="#29afd5"></path><path d="M0 468L21.5 475.7C43 483.3 86 498.7 128.8 499.8C171.7 501 214.3 488 257.2 488.5C300 489 343 503 385.8 510.7C428.7 518.3 471.3 519.7 514.2 515.8C557 512 600 503 642.8 495.7C685.7 488.3 728.3 482.7 771.2 485.8C814 489 857 501 878.5 507L900 513L900 601L878.5 601C857 601 814 601 771.2 601C728.3 601 685.7 601 642.8 601C600 601 557 601 514.2 601C471.3 601 428.7 601 385.8 601C343 601 300 601 257.2 601C214.3 601 171.7 601 128.8 601C86 601 43 601 21.5 601L0 601Z" fill="#2bb7e1"></path><path d="M0 527L21.5 532.2C43 537.3 86 547.7 128.8 550.5C171.7 553.3 214.3 548.7 257.2 546.3C300 544 343 544 385.8 545C428.7 546 471.3 548 514.2 547.7C557 547.3 600 544.7 642.8 542.2C685.7 539.7 728.3 537.3 771.2 537.8C814 538.3 857 541.7 878.5 543.3L900 545L900 601L878.5 601C857 601 814 601 771.2 601C728.3 601 685.7 601 642.8 601C600 601 557 601 514.2 601C471.3 601 428.7 601 385.8 601C343 601 300 601 257.2 601C214.3 601 171.7 601 128.8 601C86 601 43 601 21.5 601L0 601Z" fill="#2dc0ee"></path></svg>