<svg id="visual" viewBox="0 0 900 600" width="900" height="600" xmlns="http://www.w3.org/2000/svg" xmlns:xlink="http://www.w3.org/1999/xlink" version="1.1"><rect x="0" y="0" width="900" height="600" fill="#001220"></rect><defs><linearGradient id="grad1_0" x1="33.3%" y1="0%" x2="100%" y2="100%"><stop offset="20%" stop-color="#001220" stop-opacity="1"></stop><stop offset="80%" stop-color="#001220" stop-opacity="1"></stop></linearGradient></defs><defs><linearGradient id="grad2_0" x1="0%" y1="0%" x2="66.7%" y2="100%"><stop offset="20%" stop-color="#001220" stop-opacity="1"></stop><stop offset="80%" stop-color="#001220" stop-opacity="1"></stop></linearGradient></defs><g transform="translate(900, 0)"><path d="M0 486.7C-68.7 484.9 -137.4 483 -186.3 449.7C-235.1 416.4 -264.2 351.6 -303.3 303.3C-342.5 255.1 -391.8 223.4 -424.1 175.7C-456.3 127.9 -471.5 63.9 -486.7 0L0 0Z" fill="#5d5f19"></path></g><g transform="translate(0, 600)"><path d="M0 -486.7C65.5 -470.2 131 -453.7 171.8 -414.8C212.6 -376 228.7 -314.7 277.9 -277.9C327.1 -241 409.4 -228.5 449.7 -186.3C490 -144 488.4 -72 486.7 0L0 0Z" fill="#5d5f19"></path></g></svg>