<svg id="visual" viewBox="0 0 900 600" width="900" height="600" xmlns="http://www.w3.org/2000/svg" xmlns:xlink="http://www.w3.org/1999/xlink" version="1.1"><rect x="0" y="0" width="900" height="600" fill="#001220"></rect><defs><linearGradient id="grad1_0" x1="33.3%" y1="0%" x2="100%" y2="100%"><stop offset="20%" stop-color="#001220" stop-opacity="1"></stop><stop offset="80%" stop-color="#001220" stop-opacity="1"></stop></linearGradient></defs><defs><linearGradient id="grad2_0" x1="0%" y1="0%" x2="66.7%" y2="100%"><stop offset="20%" stop-color="#001220" stop-opacity="1"></stop><stop offset="80%" stop-color="#001220" stop-opacity="1"></stop></linearGradient></defs><g transform="translate(900, 0)"><path d="M0 486.7C-57.1 466.1 -114.1 445.4 -176.4 425.9C-238.7 406.4 -306.2 388 -344.2 344.2C-382.1 300.4 -390.5 231.1 -409.3 169.5C-428.1 107.9 -457.4 54 -486.7 0L0 0Z" fill="#FBAE3C"></path></g><g transform="translate(0, 600)"><path d="M0 -486.7C47.5 -444.1 95 -401.4 159.6 -385.3C224.2 -369.1 306 -379.5 344.2 -344.2C382.4 -308.9 377.1 -228 393.6 -163C410.1 -98.1 448.4 -49 486.7 0L0 0Z" fill="#FBAE3C"></path></g></svg>