<svg id="visual" viewBox="0 0 900 600" width="900" height="600" xmlns="http://www.w3.org/2000/svg" xmlns:xlink="http://www.w3.org/1999/xlink" version="1.1"><path d="M0 97L82 91L164 169L245 193L327 169L409 199L491 193L573 199L655 133L736 241L818 205L900 127L900 0L818 0L736 0L655 0L573 0L491 0L409 0L327 0L245 0L164 0L82 0L0 0Z" fill="#ff8b8b"></path><path d="M0 163L82 205L164 259L245 307L327 253L409 259L491 235L573 241L655 217L736 343L818 301L900 223L900 125L818 203L736 239L655 131L573 197L491 191L409 197L327 167L245 191L164 167L82 89L0 95Z" fill="#fc7576"></path><path d="M0 265L82 283L164 397L245 415L327 409L409 403L491 421L573 403L655 331L736 427L818 457L900 349L900 221L818 299L736 341L655 215L573 239L491 233L409 257L327 251L245 305L164 257L82 203L0 161Z" fill="#f85e61"></path><path d="M0 505L82 505L164 511L245 547L327 523L409 511L491 565L573 553L655 505L736 529L818 529L900 505L900 347L818 455L736 425L655 329L573 401L491 419L409 401L327 407L245 413L164 395L82 281L0 263Z" fill="#f2434c"></path><path d="M0 601L82 601L164 601L245 601L327 601L409 601L491 601L573 601L655 601L736 601L818 601L900 601L900 503L818 527L736 527L655 503L573 551L491 563L409 509L327 521L245 545L164 509L82 503L0 503Z" fill="#eb1d36"></path></svg>