<svg id="visual" viewBox="0 0 900 600" width="900" height="600" xmlns="http://www.w3.org/2000/svg" xmlns:xlink="http://www.w3.org/1999/xlink" version="1.1"><path d="M0 181L82 277L164 151L245 103L327 199L409 157L491 211L573 181L655 271L736 169L818 241L900 199L900 0L818 0L736 0L655 0L573 0L491 0L409 0L327 0L245 0L164 0L82 0L0 0Z" fill="#16e4a6"></path><path d="M0 289L82 373L164 373L245 349L327 403L409 391L491 361L573 331L655 361L736 409L818 367L900 319L900 197L818 239L736 167L655 269L573 179L491 209L409 155L327 197L245 101L164 149L82 275L0 179Z" fill="#00af84"></path><path d="M0 403L82 463L164 493L245 403L327 493L409 487L491 433L573 403L655 451L736 463L818 475L900 469L900 317L818 365L736 407L655 359L573 329L491 359L409 389L327 401L245 347L164 371L82 371L0 287Z" fill="#007c61"></path><path d="M0 529L82 565L164 535L245 505L327 541L409 547L491 511L573 517L655 511L736 499L818 547L900 535L900 467L818 473L736 461L655 449L573 401L491 431L409 485L327 491L245 401L164 491L82 461L0 401Z" fill="#054d3e"></path><path d="M0 601L82 601L164 601L245 601L327 601L409 601L491 601L573 601L655 601L736 601L818 601L900 601L900 533L818 545L736 497L655 509L573 515L491 509L409 545L327 539L245 503L164 533L82 563L0 527Z" fill="#06221c"></path></svg>