<svg id="visual" viewBox="0 0 900 600" width="900" height="600" xmlns="http://www.w3.org/2000/svg" xmlns:xlink="http://www.w3.org/1999/xlink" version="1.1"><path d="M0 67L300 73L600 67L900 67L900 0L600 0L300 0L0 0Z" fill="#394f48"></path><path d="M0 265L300 241L600 253L900 193L900 65L600 65L300 71L0 65Z" fill="#386758"></path><path d="M0 331L300 295L600 307L900 271L900 191L600 251L300 239L0 263Z" fill="#347f67"></path><path d="M0 397L300 409L600 385L900 367L900 269L600 305L300 293L0 329Z" fill="#2d9975"></path><path d="M0 535L300 529L600 511L900 541L900 365L600 383L300 407L0 395Z" fill="#1fb282"></path><path d="M0 601L300 601L600 601L900 601L900 539L600 509L300 527L0 533Z" fill="#00cc8e"></path></svg>